<?xml version="1.0" standalone="no"?><!DOCTYPE svg PUBLIC "-//W3C//DTD SVG 1.1//EN" "http://www.w3.org/Graphics/SVG/1.1/DTD/svg11.dtd"><svg t="1523708652580" class="icon" style="" viewBox="0 0 1024 1024" version="1.1" xmlns="http://www.w3.org/2000/svg" p-id="2417" xmlns:xlink="http://www.w3.org/1999/xlink" width="64" height="64"><defs><style type="text/css"></style></defs><path d="M569.7 256.3s114.4-95.9 221.2-91.2c97.8 4.3 42.5 240.7 2.9 280.3" fill="#FFBC00" p-id="2418"></path><path d="M797.3 449l-7.1-7.1c14.4-14.4 31.4-57.6 41.5-105.2 11.7-55.4 11.8-104.1 0.3-133.7-8.2-21-22.1-32.1-41.4-33-54-2.4-110.2 22.1-147.8 43.1-41.1 22.9-69.7 46.7-70 46.9l-6.4-7.7c0.3-0.2 29.5-24.5 71.3-47.9 38.8-21.6 97-46.9 153.3-44.5 23.3 1 40.7 14.6 50.3 39.3 12.2 31.3 12.2 82.1 0.1 139.4-10.4 50.3-28.2 94.6-44.1 110.4z" fill="" p-id="2419"></path><path d="M633.5 276.1s66.3-55.5 128.1-52.8c56.6 2.5 24.6 139.4 1.7 162.3" fill="#FFD4DC" p-id="2420"></path><path d="M455 256.3s-114.4-95.9-221.2-91.2c-97.8 4.3-42.5 240.7-2.9 280.3" fill="#FFBC00" p-id="2421"></path><path d="M227.4 449c-15.9-15.9-33.6-60.2-44.2-110.2-12.1-57.2-12.1-108 0.1-139.4 9.6-24.7 27-38.3 50.3-39.3 56.3-2.5 114.5 22.8 153.3 44.5 41.9 23.3 71 47.6 71.3 47.9l-6.4 7.7c-0.3-0.2-28.9-24-70-46.9-37.7-21-93.9-45.5-147.8-43.1-19.3 0.8-33.2 11.9-41.4 33-11.5 29.6-11.4 78.3 0.3 133.7 10.1 47.6 27.1 90.8 41.5 105.2l-7 6.9z" fill="" p-id="2422"></path><path d="M391.3 276.1s-66.3-55.5-128.1-52.8c-56.6 2.5-24.6 139.4-1.7 162.3" fill="#FFD4DC" p-id="2423"></path><path d="M512.6 551.5m-300 0a300 300 0 1 0 600 0 300 300 0 1 0-600 0Z" fill="#FFFFFF" p-id="2424"></path><path d="M512.6 856.5c-81.5 0-158.1-31.7-215.7-89.3-57.6-57.6-89.3-134.2-89.3-215.7s31.7-158.1 89.3-215.7c57.6-57.6 134.2-89.3 215.7-89.3s158.1 31.7 215.7 89.3c57.6 57.6 89.3 134.2 89.3 215.7s-31.7 158.1-89.3 215.7c-57.6 57.6-134.2 89.3-215.7 89.3z m0-600c-162.7 0-295 132.3-295 295s132.3 295 295 295 295-132.3 295-295-132.3-295-295-295z" fill="" p-id="2425"></path><path d="M512.2 557.7c0 11.6-13.5 26.9-30.1 26.9S452 578 452 563.7c0-15.9 13.5-20.9 30.1-20.9s30.1 3.3 30.1 14.9z" fill="#FFBC00" p-id="2426"></path><path d="M482.1 587.1c-20.1 0-32.6-9-32.6-23.4 0-10.7 5.7-23.4 32.6-23.4 21.6 0 32.6 5.9 32.6 17.4 0 13.2-15 29.4-32.6 29.4z m0-41.8c-27.6 0-27.6 13.9-27.6 18.4 0 17.1 21.1 18.4 27.6 18.4 15.7 0 27.6-14.8 27.6-24.4 0-8.3-9.3-12.4-27.6-12.4z" fill="" p-id="2427"></path><path d="M512.2 557.7c0 11.6 13.5 26.9 30.1 26.9s30.1-6.6 30.1-20.9c0-15.9-13.5-20.9-30.1-20.9s-30.1 3.3-30.1 14.9z" fill="#FFBC00" p-id="2428"></path><path d="M542.3 587.1c-17.6 0-32.6-16.2-32.6-29.4 0-11.5 11-17.4 32.6-17.4 26.9 0 32.6 12.7 32.6 23.4 0 14.4-12.5 23.4-32.6 23.4z m0-41.8c-18.3 0-27.6 4.2-27.6 12.4 0 9.6 11.9 24.4 27.6 24.4 6.5 0 27.6-1.3 27.6-18.4 0-4.6 0-18.4-27.6-18.4z" fill="" p-id="2429"></path><path d="M505.2 549.5l4.8 4.2c1.2 1 4 1 5.2 0l4.8-4.2c1.2-1-0.3-2.2-2.6-2.2h-9.7c-2.2-0.1-3.7 1.2-2.5 2.2z" fill="" p-id="2430"></path><path d="M512.6 556.9c-1.6 0-3.2-0.5-4.2-1.4l-4.8-4.2c-1.2-1-1.6-2.4-1.1-3.8 0.7-1.8 2.7-2.9 5.3-2.9h9.7c2.6 0 4.6 1.1 5.3 2.9 0.5 1.3 0.1 2.8-1.1 3.8l-4.8 4.2c-1.1 1-2.7 1.4-4.3 1.4z m-3.3-7.2l2.4 2.1c0.3 0.2 1.6 0.2 2 0l2.3-2h-6.7z" fill="" p-id="2431"></path><path d="M805.9 613.1S620 596.7 512.6 376.3C405.2 596.7 219.3 613.1 219.3 613.1l-0.3 0.1c-4.2-19.9-6.3-40.5-6.3-61.6 0-165.7 134.3-300 300-300s300 134.3 300 300c0 21.1-2.2 41.7-6.3 61.6l-0.5-0.1z" fill="#FFBC00" p-id="2432"></path><path d="M810.1 619.1l-5-1c-4.5-0.4-49.7-5.5-108-36.3-35.2-18.6-67.9-42.8-97-71.9-34.2-34.2-63.6-75.3-87.6-122.3-24 47-53.4 88.1-87.6 122.3-29.1 29.1-61.8 53.3-97 71.9-58.3 30.8-103.6 35.8-108 36.3l-4.9 1-1-4.9c-4.3-20.5-6.4-41.6-6.4-62.7 0-81.5 31.7-158.1 89.3-215.7 57.6-57.6 134.2-89.3 215.7-89.3s158.1 31.7 215.7 89.3c57.6 57.6 89.3 134.2 89.3 215.7 0 21.1-2.2 42.2-6.4 62.7l-1.1 4.9zM512.6 256.5c-162.7 0-295 132.3-295 295 0 18.9 1.8 37.7 5.3 56.1 12.5-1.8 52.5-9.3 100.9-34.9 53.9-28.5 129.6-86.2 184.3-198.6l4.5-9.2 4.5 9.2c54.8 112.4 130.5 170 184.3 198.6 48.4 25.7 88.3 33.1 100.9 34.9 3.5-18.4 5.3-37.2 5.3-56.1 0-162.7-132.3-295-295-295z" fill="" p-id="2433"></path><path d="M495.7 257.4s16.5-1 33.7 0c0 0-10.3 74.7-16.8 78.7s-16.9-78.7-16.9-78.7zM601.1 270.2s-24.6 69.1-37.6 87.5c-11.5 16.3-3 23.9 19.2 4.2 20.7-18.4 6.7 18.9 11.7 52.7 2.1 14.6 21.1 11.7 27.1-22 7.2-40.5 1.1-114.8 1.1-114.8s-11.2-4.5-21.5-7.6zM424.1 270.2s24.6 69.1 37.6 87.5c11.5 16.3 3 23.9-19.2 4.2-20.7-18.4-6.7 18.9-11.7 52.7-2.1 14.6-21.1 11.7-27.1-22-7.2-40.5-1.1-114.8-1.1-114.8s11.2-4.5 21.5-7.6zM733.5 359.8c8.4 3.9 14.5 25 14.1 31.3-0.4 6.3-32.8 26.8-54 27.9s39.9-59.2 39.9-59.2zM291.5 359.8c-8.4 3.9-14.5 25-14.1 31.3 0.4 6.3 32.8 26.8 54 27.9 21.2 1.2-39.9-59.2-39.9-59.2zM807.2 573.7s-39.4-33.6-75.8-37.4c-61.1-6.4-7.8-37.4 75.8-7.4 0.1-0.1 1.8 23.8 0 44.8zM218 575s39.4-33.6 75.8-37.4c61.1-6.4 7.8-37.4-75.8-7.4-0.1-0.1-1.8 21.6 0 44.8z" fill="#BA6A00" p-id="2434"></path><path d="M361.6 551.5m-55 0a55 55 0 1 0 110 0 55 55 0 1 0-110 0Z" fill="" p-id="2435"></path><path d="M361.6 608c-31.2 0-56.5-25.3-56.5-56.5s25.3-56.5 56.5-56.5 56.5 25.3 56.5 56.5-25.3 56.5-56.5 56.5z m0-110c-29.5 0-53.5 24-53.5 53.5s24 53.5 53.5 53.5 53.5-24 53.5-53.5-24-53.5-53.5-53.5z" fill="" p-id="2436"></path><path d="M337.8 536.3m-15.2 0a15.2 15.2 0 1 0 30.4 0 15.2 15.2 0 1 0-30.4 0Z" fill="#FFFFFF" p-id="2437"></path><path d="M400.8 569c2.4 4.2-1.2 14.8-13.9 22.3s-26.4 6.4-28.9 2.3 9.7-1.6 22.5-9 17.8-19.7 20.3-15.6z" fill="#565656" p-id="2438"></path><path d="M663.4 551.5m-55 0a55 55 0 1 0 110 0 55 55 0 1 0-110 0Z" fill="" p-id="2439"></path><path d="M663.4 608c-31.2 0-56.5-25.3-56.5-56.5s25.3-56.5 56.5-56.5 56.5 25.3 56.5 56.5-25.4 56.5-56.5 56.5z m0-110c-29.5 0-53.5 24-53.5 53.5s24 53.5 53.5 53.5 53.5-24 53.5-53.5-24-53.5-53.5-53.5z" fill="" p-id="2440"></path><path d="M639.6 536.3m-15.2 0a15.2 15.2 0 1 0 30.4 0 15.2 15.2 0 1 0-30.4 0Z" fill="#FFFFFF" p-id="2441"></path><path d="M702.5 569c2.4 4.2-1.2 14.8-13.9 22.3s-26.4 6.4-28.9 2.3 9.7-1.6 22.5-9 17.9-19.7 20.3-15.6z" fill="#565656" p-id="2442"></path></svg>